<svg version="1.1" id="Layer_1" xmlns="http://www.w3.org/2000/svg" xmlns:xlink="http://www.w3.org/1999/xlink" x="0px" y="0px"
	 width="100%" viewBox="0 0 512 512" enable-background="new 0 0 512 512" xml:space="preserve">
<path fill="#000000" opacity="1.000000" stroke="none" 
	d="
M1.000000,124.000000 
	C1.000000,106.645775 1.000000,89.291542 1.343037,71.389297 
	C5.856248,64.055916 12.065747,61.997829 19.658924,62.986416 
	C25.300558,63.720921 30.996063,64.104607 36.602196,65.037453 
	C56.315540,68.317726 73.182770,77.494530 87.453415,91.170601 
	C94.323883,97.754814 100.092155,105.489143 106.507866,112.873390 
	C113.574394,101.735168 122.189751,91.371216 133.134659,83.552452 
	C152.728760,69.554932 174.447891,61.502422 199.021576,62.982132 
	C204.669739,63.322239 210.853943,69.282051 210.975342,74.925560 
	C211.089996,80.255829 211.107056,85.593117 210.976974,90.922668 
	C210.731033,100.999229 211.326187,111.219780 209.834305,121.118614 
	C205.851379,147.545547 190.380463,165.614471 166.513626,176.810501 
	C162.435577,178.723526 158.078827,180.042480 152.952713,181.974350 
	C156.915009,187.891327 159.947067,193.671188 164.139816,198.427979 
	C173.819748,209.410156 186.947845,212.914902 200.969696,212.937195 
	C281.960358,213.065948 362.951324,212.987305 443.942169,213.042221 
	C447.517548,213.044647 451.140961,213.398743 454.659882,214.039719 
	C477.944366,218.281021 495.387238,230.773636 506.198181,251.848419 
	C509.263123,257.823120 510.775574,264.594147 513.000000,271.000000 
	C513.000000,281.354218 513.000000,291.708466 512.600830,302.685364 
	C511.338318,318.092773 507.845306,332.333527 503.250793,346.339417 
	C494.760468,372.221313 481.459808,395.487427 463.500763,415.826233 
	C442.661377,439.427094 417.724518,457.716797 388.505707,469.863251 
	C365.398407,479.469055 341.268188,484.347992 316.299377,484.924194 
	C309.232697,485.087219 302.125092,484.557098 295.072540,483.934174 
	C288.610260,483.363434 282.162872,482.432922 275.770111,481.311890 
	C266.382935,479.665833 257.921448,476.219757 248.809128,485.049255 
	C236.504822,496.971649 220.716660,504.088379 203.804123,508.039978 
	C196.862091,509.661957 189.934280,511.344849 183.000000,513.000000 
	C175.979050,513.000000 168.958099,513.000000 161.377625,512.654419 
	C156.060791,510.056885 152.370483,506.756409 152.052322,501.214142 
	C151.183853,486.086395 152.936615,471.224731 158.047501,456.929016 
	C161.146820,448.259918 164.896606,439.823364 168.315964,431.376678 
	C163.547653,427.383148 158.210236,423.348938 153.373642,418.784088 
	C135.701172,402.104736 119.706894,383.993591 106.774208,363.303772 
	C95.078941,344.593689 84.772537,325.150208 78.132614,304.090454 
	C73.364212,288.966553 69.794769,273.451721 66.024078,258.029755 
	C62.161209,242.230774 60.938633,226.102997 60.995293,209.865463 
	C61.022598,202.039993 60.878281,194.211548 61.058125,186.390121 
	C61.133183,183.125900 60.270115,181.812469 56.776047,180.858032 
	C32.228363,174.152573 15.174945,158.818100 5.625658,135.189484 
	C4.113433,131.447662 2.543339,127.729240 1.000000,124.000000 
M480.999420,305.385864 
	C480.139832,304.590729 479.273346,303.112946 478.421906,303.121613 
	C475.169861,303.154572 471.912292,304.026886 468.675537,303.933685 
	C457.305145,303.606262 446.316956,305.789398 435.579102,309.072662 
	C418.887756,314.176208 405.064972,323.651093 393.927521,337.206512 
	C385.280609,347.730713 376.738220,358.439148 367.128540,368.044434 
	C358.686829,376.482300 347.974426,381.893097 336.667908,386.154419 
	C325.169647,390.488129 313.405426,392.819305 301.036224,393.216553 
	C298.786194,413.998505 292.993011,433.398163 280.815979,451.150757 
	C288.318024,452.140259 295.369141,453.835205 302.417908,453.825439 
	C313.740265,453.809753 325.111725,453.127930 336.370209,451.889191 
	C352.124573,450.155792 367.207733,445.401123 381.511200,438.721008 
	C405.092102,427.708130 425.400421,412.292572 442.299194,392.316956 
	C456.750732,375.234192 467.459869,356.115051 474.365601,334.971619 
	C477.399567,325.682434 478.835876,315.871368 480.999420,305.385864 
M358.061340,278.595917 
	C353.621155,273.583252 347.857605,272.780518 342.015137,274.672638 
	C336.724152,276.386139 332.573395,281.781891 332.783295,289.029785 
	C332.927490,294.009674 337.896698,300.390259 342.876740,301.868225 
	C349.104645,303.716492 356.120789,300.777130 359.075562,295.710388 
	C362.375336,290.052002 361.573669,284.576660 358.061340,278.595917 
z"/>
<path fill="#FFFFFF" opacity="1.000000" stroke="none" 
	d="
M513.000000,270.531342 
	C510.775574,264.594147 509.263123,257.823120 506.198181,251.848419 
	C495.387238,230.773636 477.944366,218.281021 454.659882,214.039719 
	C451.140961,213.398743 447.517548,213.044647 443.942169,213.042221 
	C362.951324,212.987305 281.960358,213.065948 200.969696,212.937195 
	C186.947845,212.914902 173.819748,209.410156 164.139816,198.427979 
	C159.947067,193.671188 156.915009,187.891327 152.952713,181.974350 
	C158.078827,180.042480 162.435577,178.723526 166.513626,176.810501 
	C190.380463,165.614471 205.851379,147.545547 209.834305,121.118614 
	C211.326187,111.219780 210.731033,100.999229 210.976974,90.922668 
	C211.107056,85.593117 211.089996,80.255829 210.975342,74.925560 
	C210.853943,69.282051 204.669739,63.322239 199.021576,62.982132 
	C174.447891,61.502422 152.728760,69.554932 133.134659,83.552452 
	C122.189751,91.371216 113.574394,101.735168 106.507866,112.873390 
	C100.092155,105.489143 94.323883,97.754814 87.453415,91.170601 
	C73.182770,77.494530 56.315540,68.317726 36.602196,65.037453 
	C30.996063,64.104607 25.300558,63.720921 19.658924,62.986416 
	C12.065747,61.997829 5.856248,64.055916 1.343037,70.920639 
	C1.000000,47.690098 1.000000,24.380194 1.000000,1.000000 
	C122.687553,1.000000 244.375122,1.000000 366.414429,1.369363 
	C347.018158,5.905811 330.739166,25.360046 331.769257,46.487732 
	C332.120636,53.694530 336.567291,58.826515 341.427521,60.742413 
	C347.865112,63.280094 356.236115,60.650234 359.465729,54.817467 
	C361.410767,51.304783 362.075317,47.014622 362.944092,42.993637 
	C363.821350,38.933464 368.916382,33.035679 372.904083,32.058155 
	C378.647217,30.650307 384.732239,33.041306 388.102173,37.285221 
	C391.390045,41.425793 391.949036,46.158611 391.958160,51.007191 
	C392.032532,90.489128 391.995880,129.971268 392.003265,169.453354 
	C392.004883,178.000061 397.690247,183.000839 407.349487,183.000015 
	C416.475128,182.999237 421.996521,177.828949 421.998016,169.254166 
	C422.003143,139.767548 421.921204,110.280464 422.097351,80.794899 
	C422.119995,77.006897 422.738617,72.875542 424.357605,69.518913 
	C427.376740,63.259411 434.191956,60.139160 440.767090,62.163822 
	C446.545654,63.943207 450.658966,67.893349 451.103973,74.711853 
	C451.299103,77.701790 451.946136,80.905426 453.315918,83.527214 
	C456.649109,89.907013 462.406921,91.576210 469.345337,91.082680 
	C476.103088,90.602013 481.523132,85.045250 482.084961,78.269821 
	C483.098480,66.047852 479.277985,55.338520 471.571136,46.364952 
	C463.766144,37.277149 453.666016,31.315475 441.255157,31.103886 
	C434.307190,30.985432 427.341248,31.918076 420.421173,32.374622 
	C416.853546,24.205935 413.312622,15.537206 404.933411,10.570555 
	C398.863800,6.972882 392.327942,4.161830 386.000000,0.999998 
	C428.286652,1.000000 470.573273,1.000000 513.000000,1.000000 
	C513.000000,90.687515 513.000000,180.375092 513.000000,270.531342 
z"/>
<path fill="#FFFFFF" opacity="1.000000" stroke="none" 
	d="
M1.000000,124.468658 
	C2.543339,127.729240 4.113433,131.447662 5.625658,135.189484 
	C15.174945,158.818100 32.228363,174.152573 56.776047,180.858032 
	C60.270115,181.812469 61.133183,183.125900 61.058125,186.390121 
	C60.878281,194.211548 61.022598,202.039993 60.995293,209.865463 
	C60.938633,226.102997 62.161209,242.230774 66.024078,258.029755 
	C69.794769,273.451721 73.364212,288.966553 78.132614,304.090454 
	C84.772537,325.150208 95.078941,344.593689 106.774208,363.303772 
	C119.706894,383.993591 135.701172,402.104736 153.373642,418.784088 
	C158.210236,423.348938 163.547653,427.383148 168.315964,431.376678 
	C164.896606,439.823364 161.146820,448.259918 158.047501,456.929016 
	C152.936615,471.224731 151.183853,486.086395 152.052322,501.214142 
	C152.370483,506.756409 156.060791,510.056885 160.909058,512.654419 
	C107.709198,513.000000 54.418388,513.000000 1.000000,513.000000 
	C1.000000,383.645813 1.000000,254.291565 1.000000,124.468658 
z"/>
<path fill="#FFFFFF" opacity="1.000000" stroke="none" 
	d="
M183.468658,513.000000 
	C189.934280,511.344849 196.862091,509.661957 203.804123,508.039978 
	C220.716660,504.088379 236.504822,496.971649 248.809128,485.049255 
	C257.921448,476.219757 266.382935,479.665833 275.770111,481.311890 
	C282.162872,482.432922 288.610260,483.363434 295.072540,483.934174 
	C302.125092,484.557098 309.232697,485.087219 316.299377,484.924194 
	C341.268188,484.347992 365.398407,479.469055 388.505707,469.863251 
	C417.724518,457.716797 442.661377,439.427094 463.500763,415.826233 
	C481.459808,395.487427 494.760468,372.221313 503.250793,346.339417 
	C507.845306,332.333527 511.338318,318.092773 512.600830,303.153992 
	C513.000000,372.943268 513.000000,442.886505 513.000000,513.000000 
	C403.312500,513.000000 293.624908,513.000000 183.468658,513.000000 
z"/>
<path fill="#000000" opacity="1.000000" stroke="none" 
	d="
M385.531738,0.999998 
	C392.327942,4.161830 398.863800,6.972882 404.933411,10.570555 
	C413.312622,15.537206 416.853546,24.205935 420.421173,32.374622 
	C427.341248,31.918076 434.307190,30.985432 441.255157,31.103886 
	C453.666016,31.315475 463.766144,37.277149 471.571136,46.364952 
	C479.277985,55.338520 483.098480,66.047852 482.084961,78.269821 
	C481.523132,85.045250 476.103088,90.602013 469.345337,91.082680 
	C462.406921,91.576210 456.649109,89.907013 453.315918,83.527214 
	C451.946136,80.905426 451.299103,77.701790 451.103973,74.711853 
	C450.658966,67.893349 446.545654,63.943207 440.767090,62.163822 
	C434.191956,60.139160 427.376740,63.259411 424.357605,69.518913 
	C422.738617,72.875542 422.119995,77.006897 422.097351,80.794899 
	C421.921204,110.280464 422.003143,139.767548 421.998016,169.254166 
	C421.996521,177.828949 416.475128,182.999237 407.349487,183.000015 
	C397.690247,183.000839 392.004883,178.000061 392.003265,169.453354 
	C391.995880,129.971268 392.032532,90.489128 391.958160,51.007191 
	C391.949036,46.158611 391.390045,41.425793 388.102173,37.285221 
	C384.732239,33.041306 378.647217,30.650307 372.904083,32.058155 
	C368.916382,33.035679 363.821350,38.933464 362.944092,42.993637 
	C362.075317,47.014622 361.410767,51.304783 359.465729,54.817467 
	C356.236115,60.650234 347.865112,63.280094 341.427521,60.742413 
	C336.567291,58.826515 332.120636,53.694530 331.769257,46.487732 
	C330.739166,25.360046 347.018158,5.905811 366.883118,1.369363 
	C373.021149,1.000000 379.042297,1.000000 385.531738,0.999998 
z"/>
<path fill="#FFFFFF" opacity="1.000000" stroke="none" 
	d="
M480.998474,305.841553 
	C478.835876,315.871368 477.399567,325.682434 474.365601,334.971619 
	C467.459869,356.115051 456.750732,375.234192 442.299194,392.316956 
	C425.400421,412.292572 405.092102,427.708130 381.511200,438.721008 
	C367.207733,445.401123 352.124573,450.155792 336.370209,451.889191 
	C325.111725,453.127930 313.740265,453.809753 302.417908,453.825439 
	C295.369141,453.835205 288.318024,452.140259 280.815979,451.150757 
	C292.993011,433.398163 298.786194,413.998505 301.036224,393.216553 
	C313.405426,392.819305 325.169647,390.488129 336.667908,386.154419 
	C347.974426,381.893097 358.686829,376.482300 367.128540,368.044434 
	C376.738220,358.439148 385.280609,347.730713 393.927521,337.206512 
	C405.064972,323.651093 418.887756,314.176208 435.579102,309.072662 
	C446.316956,305.789398 457.305145,303.606262 468.675537,303.933685 
	C471.912292,304.026886 475.169861,303.154572 478.421906,303.121613 
	C479.273346,303.112946 480.139832,304.590729 480.998474,305.841553 
z"/>
<path fill="#FFFFFF" opacity="1.000000" stroke="none" 
	d="
M358.353760,278.857391 
	C361.573669,284.576660 362.375336,290.052002 359.075562,295.710388 
	C356.120789,300.777130 349.104645,303.716492 342.876740,301.868225 
	C337.896698,300.390259 332.927490,294.009674 332.783295,289.029785 
	C332.573395,281.781891 336.724152,276.386139 342.015137,274.672638 
	C347.857605,272.780518 353.621155,273.583252 358.353760,278.857391 
z"/>
</svg>